<?xml version="1.0" encoding="UTF-8" ?>
<!DOCTYPE svg PUBLIC "-//W3C//DTD SVG 1.1//EN" "http://www.w3.org/Graphics/SVG/1.1/DTD/svg11.dtd">
<svg width="512pt" height="512pt" viewBox="0 0 512 512" version="1.1" xmlns="http://www.w3.org/2000/svg">
<g id="#3c3853ff">
<path fill="#3c3853" opacity="1.00" d=" M 203.57 87.57 C 216.67 75.78 234.90 72.11 252.01 71.56 C 277.43 70.45 302.77 78.33 324.13 91.88 C 339.50 101.84 353.11 116.44 357.00 134.83 C 384.54 153.69 406.68 180.36 419.93 211.01 C 439.31 254.98 439.79 306.83 421.23 351.14 C 406.43 386.98 379.53 417.60 346.04 437.11 C 307.11 460.09 259.24 467.20 215.27 456.78 C 184.89 449.77 156.51 434.49 133.79 413.17 C 109.17 390.21 91.15 360.18 82.75 327.56 C 73.60 292.64 75.37 254.93 87.86 221.05 C 100.06 187.38 122.77 157.68 151.91 136.90 C 153.47 136.07 154.98 133.60 156.89 135.01 C 160.82 121.41 168.59 108.55 180.04 100.01 C 185.04 96.30 190.90 93.63 197.11 92.84 C 200.19 92.65 201.34 89.22 203.57 87.57 M 99.49 219.60 C 88.45 246.78 84.86 276.91 88.96 305.95 C 93.46 338.52 107.81 369.73 129.82 394.19 C 134.08 386.33 140.45 379.59 148.31 375.26 C 152.18 372.98 156.52 371.72 160.55 369.77 C 160.66 363.39 162.93 356.95 167.12 352.10 C 172.09 346.56 179.74 344.57 186.93 344.23 C 191.63 343.92 196.83 344.73 200.95 341.89 C 205.17 339.04 208.54 334.87 213.56 333.30 C 192.85 322.47 176.99 302.77 170.87 280.21 C 170.16 276.66 166.30 275.35 164.26 272.69 C 154.78 261.87 147.91 248.37 146.00 234.02 C 144.96 224.54 145.80 214.27 151.06 206.06 C 152.18 204.09 154.41 202.51 154.26 200.03 C 154.38 182.64 154.10 165.24 154.41 147.86 C 130.07 166.21 110.75 191.24 99.49 219.60 M 357.89 148.20 C 357.88 165.48 357.85 182.77 357.89 200.05 C 357.70 201.72 358.79 203.00 359.71 204.25 C 363.63 209.35 365.58 215.72 366.20 222.05 C 367.40 233.52 364.57 245.14 359.36 255.33 C 355.27 263.46 350.23 271.38 342.99 277.06 C 341.23 278.35 341.11 280.71 340.39 282.61 C 333.95 304.17 318.38 322.35 298.88 333.31 C 305.96 335.10 309.52 343.09 316.98 343.88 C 324.50 344.35 332.51 343.80 339.37 347.53 C 347.69 351.61 351.90 361.18 352.08 370.09 C 355.45 371.74 359.09 372.80 362.40 374.60 C 370.78 378.94 377.59 385.96 382.10 394.22 C 406.02 367.49 420.96 332.86 423.92 297.10 C 426.48 268.55 421.53 239.35 409.71 213.23 C 398.25 187.67 380.22 165.10 357.89 148.20 M 222.30 150.63 C 211.57 165.08 198.14 178.37 181.25 185.29 C 179.44 186.06 178.58 188.08 178.65 189.97 C 178.29 213.32 177.73 236.68 178.13 260.03 C 178.63 276.58 184.91 292.86 195.52 305.56 C 207.98 320.71 226.54 330.76 246.10 332.64 C 259.26 333.86 272.84 332.94 285.24 328.07 C 304.68 320.63 320.72 304.88 328.51 285.58 C 332.47 275.90 334.21 265.40 334.06 254.97 C 333.99 232.96 334.01 210.95 334.00 188.94 C 334.37 185.15 330.58 182.24 327.00 182.55 C 302.43 182.38 277.49 179.56 254.46 170.58 C 242.67 165.93 231.39 159.55 222.30 150.63 M 158.03 214.79 C 155.18 223.71 155.50 233.53 158.46 242.38 C 160.55 249.02 164.23 254.96 167.73 260.92 C 167.50 247.68 167.67 234.45 167.64 221.21 C 164.43 219.09 161.64 216.25 158.03 214.79 M 344.33 223.23 C 344.32 235.75 344.49 248.28 344.24 260.80 C 346.73 256.71 349.17 252.58 351.15 248.21 C 356.04 237.91 357.40 225.74 353.83 214.81 C 350.59 217.53 347.41 220.32 344.33 223.23 M 231.63 340.54 C 231.85 345.40 231.04 350.42 232.64 355.12 C 234.79 362.62 239.55 369.97 247.07 372.92 C 253.46 375.74 261.05 374.55 266.83 370.83 C 273.77 366.39 278.54 358.96 280.31 350.97 C 280.71 347.65 280.42 344.31 280.48 340.98 C 275.02 341.55 269.69 342.96 264.19 343.25 C 253.29 343.90 242.19 343.49 231.63 340.54 M 204.07 352.09 C 196.17 356.37 186.67 352.79 178.58 356.43 C 173.99 358.40 171.57 363.36 170.77 368.04 C 170.54 371.34 173.30 373.69 175.61 375.58 C 182.95 381.13 191.28 385.15 199.00 390.12 C 218.50 402.24 237.25 415.51 256.57 427.88 C 275.00 415.10 293.67 402.65 312.61 390.62 C 320.79 385.37 329.65 381.17 337.36 375.19 C 339.75 373.27 342.47 370.50 341.61 367.13 C 340.48 363.01 338.49 358.53 334.35 356.68 C 326.76 352.92 317.84 356.04 310.12 352.81 C 305.81 351.19 302.41 348.01 298.94 345.10 C 296.72 343.14 293.64 342.87 290.89 342.19 C 294.16 345.73 297.05 349.76 298.37 354.47 C 301.61 365.38 298.62 377.34 292.82 386.85 C 284.07 400.38 270.41 409.90 256.24 417.08 C 250.34 414.04 244.58 410.73 239.24 406.80 C 227.48 398.33 216.86 386.77 213.80 372.20 C 211.02 361.74 213.40 349.94 221.17 342.19 C 213.92 342.47 210.23 349.42 204.07 352.09 M 272.42 379.38 C 263.12 385.48 250.59 386.54 240.65 381.35 C 232.04 376.89 226.24 368.47 223.10 359.49 C 222.42 365.44 223.54 371.46 225.98 376.91 C 232.02 389.83 244.18 398.45 256.16 405.43 C 265.82 400.13 274.92 393.42 281.76 384.70 C 287.48 377.23 290.82 367.41 288.91 358.01 C 285.62 366.50 280.28 374.51 272.42 379.38 M 149.12 387.16 C 143.95 391.02 140.13 396.40 137.49 402.24 C 150.17 415.11 165.19 425.60 181.32 433.70 C 183.66 435.10 186.45 434.63 189.04 434.90 C 189.68 435.94 189.39 437.77 190.91 438.07 C 232.36 455.62 280.85 455.35 322.20 437.61 C 322.38 436.65 322.56 435.69 322.73 434.73 C 325.42 434.79 328.30 435.10 330.71 433.63 C 346.80 425.54 361.78 415.06 374.43 402.21 C 371.59 395.95 367.31 390.26 361.63 386.32 C 357.45 383.29 352.53 381.58 347.78 379.69 C 339.56 387.65 329.01 392.41 319.45 398.47 C 299.66 410.83 280.44 424.09 261.09 437.12 C 259.52 438.10 257.93 439.16 256.09 439.54 C 254.27 438.93 252.66 437.86 251.08 436.82 C 231.37 423.52 211.69 410.16 191.55 397.50 C 182.45 391.78 172.38 387.26 164.75 379.49 C 159.33 381.58 153.72 383.52 149.12 387.16 Z" />
<path fill="#3c3853" opacity="1.00" d=" M 211.45 190.78 C 217.97 189.21 224.94 190.33 231.00 193.04 C 233.61 194.05 233.86 198.06 231.39 199.38 C 229.41 200.74 227.29 199.09 225.41 198.42 C 218.45 195.33 209.76 195.93 203.73 200.77 C 202.25 201.77 200.95 203.55 198.94 203.27 C 196.90 202.51 196.86 199.69 198.39 198.41 C 201.92 194.74 206.49 192.00 211.45 190.78 Z" />
<path fill="#3c3853" opacity="1.00" d=" M 288.49 190.59 C 297.68 188.66 307.86 191.98 313.87 199.23 C 315.55 201.25 312.47 204.78 310.43 202.71 C 305.48 198.23 298.68 195.59 291.98 196.89 C 288.38 197.15 285.34 199.34 281.88 200.06 C 278.81 199.91 277.29 195.61 279.72 193.65 C 282.33 191.94 285.48 191.29 288.49 190.59 Z" />
<path fill="#3c3853" opacity="1.00" d=" M 213.36 209.56 C 216.57 208.10 220.75 210.47 221.09 213.98 C 221.37 218.30 221.31 222.66 221.06 226.99 C 220.65 230.54 216.27 232.83 213.11 231.13 C 211.08 230.29 209.80 228.17 209.89 226.00 C 209.81 222.30 209.81 218.59 209.89 214.89 C 209.79 212.60 211.21 210.37 213.36 209.56 M 214.14 214.01 C 211.00 215.56 213.65 220.81 216.72 218.66 C 219.44 216.92 217.04 212.84 214.14 214.01 Z" />
<path fill="#3c3853" opacity="1.00" d=" M 294.39 209.54 C 297.58 208.13 301.64 210.51 302.03 213.95 C 302.33 217.98 302.14 222.05 302.08 226.10 C 302.17 228.91 299.77 231.42 297.01 231.67 C 293.86 232.04 290.64 229.32 290.81 226.08 C 290.74 222.38 290.74 218.69 290.81 214.99 C 290.68 212.64 292.21 210.38 294.39 209.54 M 295.25 214.17 C 292.62 215.91 294.81 220.04 297.74 218.98 C 300.94 217.45 298.51 212.33 295.25 214.17 Z" />
<path fill="#3c3853" opacity="1.00" d=" M 244.56 253.56 C 245.81 252.00 247.89 252.64 248.93 254.05 C 251.31 256.90 255.34 258.46 258.93 257.11 C 261.44 256.40 262.85 253.94 265.15 252.88 C 267.65 252.84 269.54 255.95 268.15 258.09 C 262.85 265.50 250.76 265.98 244.80 259.11 C 243.11 257.75 242.82 255.01 244.56 253.56 Z" />
<path fill="#3c3853" opacity="1.00" d=" M 280.46 285.24 C 283.02 282.61 287.27 287.10 285.14 289.85 C 278.37 303.28 258.97 307.08 246.69 299.24 C 243.68 297.51 246.22 291.94 249.47 293.64 C 259.70 300.03 275.32 296.62 280.46 285.24 Z" />
</g>
<g id="#9c8fc3ff">
<path fill="#9c8fc3" opacity="1.00" d=" M 99.49 219.60 C 110.75 191.24 130.07 166.21 154.41 147.86 C 154.10 165.24 154.38 182.64 154.26 200.03 C 154.41 202.51 152.18 204.09 151.06 206.06 C 145.80 214.27 144.96 224.54 146.00 234.02 C 147.91 248.37 154.78 261.87 164.26 272.69 C 166.30 275.35 170.16 276.66 170.87 280.21 C 176.99 302.77 192.85 322.47 213.56 333.30 C 208.54 334.87 205.17 339.04 200.95 341.89 C 196.83 344.73 191.63 343.92 186.93 344.23 C 179.74 344.57 172.09 346.56 167.12 352.10 C 162.93 356.95 160.66 363.39 160.55 369.77 C 156.52 371.72 152.18 372.98 148.31 375.26 C 140.45 379.59 134.08 386.33 129.82 394.19 C 107.81 369.73 93.46 338.52 88.96 305.95 C 84.86 276.91 88.45 246.78 99.49 219.60 Z" />
<path fill="#9c8fc3" opacity="1.00" d=" M 357.89 148.20 C 380.22 165.10 398.25 187.67 409.71 213.23 C 421.53 239.35 426.48 268.55 423.92 297.10 C 420.96 332.86 406.02 367.49 382.10 394.22 C 377.59 385.96 370.78 378.94 362.40 374.60 C 359.09 372.80 355.45 371.74 352.08 370.09 C 351.90 361.18 347.69 351.61 339.37 347.53 C 332.51 343.80 324.50 344.35 316.98 343.88 C 309.52 343.09 305.96 335.10 298.88 333.31 C 318.38 322.35 333.95 304.17 340.39 282.61 C 341.11 280.71 341.23 278.35 342.99 277.06 C 350.23 271.38 355.27 263.46 359.36 255.33 C 364.57 245.14 367.40 233.52 366.20 222.05 C 365.58 215.72 363.63 209.35 359.71 204.25 C 358.79 203.00 357.70 201.72 357.89 200.05 C 357.85 182.77 357.88 165.48 357.89 148.20 Z" />
</g>
<g id="#f7cab3ff">
<path fill="#f7cab3" opacity="1.00" d=" M 222.30 150.63 C 231.39 159.55 242.67 165.93 254.46 170.58 C 277.49 179.56 302.43 182.38 327.00 182.55 C 330.58 182.24 334.37 185.15 334.00 188.94 C 334.01 210.95 333.99 232.96 334.06 254.97 C 334.21 265.40 332.47 275.90 328.51 285.58 C 320.72 304.88 304.68 320.63 285.24 328.07 C 272.84 332.94 259.26 333.86 246.10 332.64 C 226.54 330.76 207.98 320.71 195.52 305.56 C 184.91 292.86 178.63 276.58 178.13 260.03 C 177.73 236.68 178.29 213.32 178.65 189.97 C 178.58 188.08 179.44 186.06 181.25 185.29 C 198.14 178.37 211.57 165.08 222.30 150.63 M 211.45 190.78 C 206.49 192.00 201.92 194.74 198.39 198.41 C 196.86 199.69 196.90 202.51 198.94 203.27 C 200.95 203.55 202.25 201.77 203.73 200.77 C 209.76 195.93 218.45 195.33 225.41 198.42 C 227.29 199.09 229.41 200.74 231.39 199.38 C 233.86 198.06 233.61 194.05 231.00 193.04 C 224.94 190.33 217.97 189.21 211.45 190.78 M 288.49 190.59 C 285.48 191.29 282.33 191.94 279.72 193.65 C 277.29 195.61 278.81 199.91 281.88 200.06 C 285.34 199.34 288.38 197.15 291.98 196.89 C 298.68 195.59 305.48 198.23 310.43 202.71 C 312.47 204.78 315.55 201.25 313.87 199.23 C 307.86 191.98 297.68 188.66 288.49 190.59 M 213.36 209.56 C 211.21 210.37 209.79 212.60 209.89 214.89 C 209.81 218.59 209.81 222.30 209.89 226.00 C 209.80 228.17 211.08 230.29 213.11 231.13 C 216.27 232.83 220.65 230.54 221.06 226.99 C 221.31 222.66 221.37 218.30 221.09 213.98 C 220.75 210.47 216.57 208.10 213.36 209.56 M 294.39 209.54 C 292.21 210.38 290.68 212.64 290.81 214.99 C 290.74 218.69 290.74 222.38 290.81 226.08 C 290.64 229.32 293.86 232.04 297.01 231.67 C 299.77 231.42 302.17 228.91 302.08 226.10 C 302.14 222.05 302.33 217.98 302.03 213.95 C 301.64 210.51 297.58 208.13 294.39 209.54 M 244.56 253.56 C 242.82 255.01 243.11 257.75 244.80 259.11 C 250.76 265.98 262.85 265.50 268.15 258.09 C 269.54 255.95 267.65 252.84 265.15 252.88 C 262.85 253.94 261.44 256.40 258.93 257.11 C 255.34 258.46 251.31 256.90 248.93 254.05 C 247.89 252.64 245.81 252.00 244.56 253.56 M 280.46 285.24 C 275.32 296.62 259.70 300.03 249.47 293.64 C 246.22 291.94 243.68 297.51 246.69 299.24 C 258.97 307.08 278.37 303.28 285.14 289.85 C 287.27 287.10 283.02 282.61 280.46 285.24 Z" />
<path fill="#f7cab3" opacity="1.00" d=" M 214.14 214.01 C 217.04 212.84 219.44 216.92 216.72 218.66 C 213.65 220.81 211.00 215.56 214.14 214.01 Z" />
<path fill="#f7cab3" opacity="1.00" d=" M 295.25 214.17 C 298.51 212.33 300.94 217.45 297.74 218.98 C 294.81 220.04 292.62 215.91 295.25 214.17 Z" />
<path fill="#f7cab3" opacity="1.00" d=" M 158.03 214.79 C 161.64 216.25 164.43 219.09 167.64 221.21 C 167.67 234.45 167.50 247.68 167.73 260.92 C 164.23 254.96 160.55 249.02 158.46 242.38 C 155.50 233.53 155.18 223.71 158.03 214.79 Z" />
<path fill="#f7cab3" opacity="1.00" d=" M 344.33 223.23 C 347.41 220.32 350.59 217.53 353.83 214.81 C 357.40 225.74 356.04 237.91 351.15 248.21 C 349.17 252.58 346.73 256.71 344.24 260.80 C 344.49 248.28 344.32 235.75 344.33 223.23 Z" />
<path fill="#f7cab3" opacity="1.00" d=" M 231.63 340.54 C 242.19 343.49 253.29 343.90 264.19 343.25 C 269.69 342.96 275.02 341.55 280.48 340.98 C 280.42 344.31 280.71 347.65 280.31 350.97 C 278.54 358.96 273.77 366.39 266.83 370.83 C 261.05 374.55 253.46 375.74 247.07 372.92 C 239.55 369.97 234.79 362.62 232.64 355.12 C 231.04 350.42 231.85 345.40 231.63 340.54 Z" />
<path fill="#f7cab3" opacity="1.00" d=" M 272.42 379.38 C 280.28 374.51 285.62 366.50 288.91 358.01 C 290.82 367.41 287.48 377.23 281.76 384.70 C 274.92 393.42 265.82 400.13 256.16 405.43 C 244.18 398.45 232.02 389.83 225.98 376.91 C 223.54 371.46 222.42 365.44 223.10 359.49 C 226.24 368.47 232.04 376.89 240.65 381.35 C 250.59 386.54 263.12 385.48 272.42 379.38 Z" />
</g>
<g id="#b4cf57ff">
<path fill="#b4cf57" opacity="1.00" d=" M 204.07 352.09 C 210.23 349.42 213.92 342.47 221.17 342.19 C 213.40 349.94 211.02 361.74 213.80 372.20 C 216.86 386.77 227.48 398.33 239.24 406.80 C 244.58 410.73 250.34 414.04 256.24 417.08 C 270.41 409.90 284.07 400.38 292.82 386.85 C 298.62 377.34 301.61 365.38 298.37 354.47 C 297.05 349.76 294.16 345.73 290.89 342.19 C 293.64 342.87 296.72 343.14 298.94 345.10 C 302.41 348.01 305.81 351.19 310.12 352.81 C 317.84 356.04 326.76 352.92 334.35 356.68 C 338.49 358.53 340.48 363.01 341.61 367.13 C 342.47 370.50 339.75 373.27 337.36 375.19 C 329.65 381.17 320.79 385.37 312.61 390.62 C 293.67 402.65 275.00 415.10 256.57 427.88 C 237.25 415.51 218.50 402.24 199.00 390.12 C 191.28 385.15 182.95 381.13 175.61 375.58 C 173.30 373.69 170.54 371.34 170.77 368.04 C 171.57 363.36 173.99 358.40 178.58 356.43 C 186.67 352.79 196.17 356.37 204.07 352.09 Z" />
<path fill="#b4cf57" opacity="1.00" d=" M 149.12 387.16 C 153.72 383.52 159.33 381.58 164.75 379.49 C 172.38 387.26 182.45 391.78 191.55 397.50 C 211.69 410.16 231.37 423.52 251.08 436.82 C 252.66 437.86 254.27 438.93 256.09 439.54 C 257.93 439.16 259.52 438.10 261.09 437.12 C 280.44 424.09 299.66 410.83 319.45 398.47 C 329.01 392.41 339.56 387.65 347.78 379.69 C 352.53 381.58 357.45 383.29 361.63 386.32 C 367.31 390.26 371.59 395.95 374.43 402.21 C 361.78 415.06 346.80 425.54 330.71 433.63 C 328.30 435.10 325.42 434.79 322.73 434.73 C 322.56 435.69 322.38 436.65 322.20 437.61 C 280.85 455.35 232.36 455.62 190.91 438.07 C 189.39 437.77 189.68 435.94 189.04 434.90 C 186.45 434.63 183.66 435.10 181.32 433.70 C 165.19 425.60 150.17 415.11 137.49 402.24 C 140.13 396.40 143.95 391.02 149.12 387.16 Z" />
</g>
</svg>
